<?xml version="1.0" standalone="no"?>
<!DOCTYPE svg PUBLIC "-//W3C//DTD SVG 20010904//EN"
 "http://www.w3.org/TR/2001/REC-SVG-20010904/DTD/svg10.dtd">
<svg version="1.0" xmlns="http://www.w3.org/2000/svg"
 width="290.000000pt" height="290.000000pt" viewBox="0 0 290.000000 290.000000"
 preserveAspectRatio="xMidYMid meet">
<metadata>
Created by potrace 1.11, written by Peter Selinger 2001-2013
</metadata>
<g transform="translate(0.000000,290.000000) scale(0.100000,-0.100000)"
fill="#000000" stroke="none">
<path d="M1285 2829 c-22 -4 -56 -10 -75 -14 -38 -6 -193 -51 -225 -65 -11 -5
-36 -14 -56 -20 -44 -13 -212 -122 -231 -149 -8 -11 -35 -37 -60 -58 -52 -42
-153 -163 -171 -203 -6 -14 -33 -49 -59 -77 -81 -88 -156 -268 -173 -418 -15
-135 -14 -211 4 -263 10 -29 15 -55 11 -57 -15 -9 -47 -80 -55 -120 -14 -76
-6 -179 22 -275 9 -30 16 -62 15 -71 0 -8 12 -40 27 -70 32 -62 82 -94 135
-86 34 5 76 -7 76 -22 0 -46 228 -347 302 -399 18 -13 79 -56 134 -96 56 -40
128 -85 160 -101 33 -15 66 -34 75 -42 9 -8 29 -16 45 -19 16 -3 33 -9 39 -13
11 -9 180 -73 235 -90 62 -18 93 -22 216 -28 208 -9 321 28 511 168 127 93
280 341 308 496 2 16 9 49 14 76 4 26 7 105 5 175 -13 402 -12 567 3 584 17
19 39 56 83 141 19 36 45 68 70 85 73 50 91 163 41 260 -12 23 -21 53 -21 68
0 71 -30 130 -99 200 -66 67 -218 184 -238 184 -5 0 -20 12 -34 26 -23 24
-181 134 -194 134 -3 0 -23 11 -44 24 -21 14 -58 30 -82 36 -24 6 -89 27 -144
45 -55 18 -125 36 -155 40 -30 4 -59 9 -64 13 -14 8 -306 10 -351 1z"/>
</g>
</svg>
